G04 #@! TF.FileFunction,Legend,Top*
%FSLAX46Y46*%
G04 Gerber Fmt 4.6, Leading zero omitted, Abs format (unit mm)*
G04 Created by KiCad (PCBNEW (2015-08-25 BZR 6127, Git a813deb)-product) date 9/4/2015 10:59:33 PM*
%MOMM*%
G01*
G04 APERTURE LIST*
%ADD10C,0.100000*%
%ADD11C,0.300000*%
%ADD12C,0.150000*%
%ADD13C,0.050000*%
G04 APERTURE END LIST*
D10*
D11*
X116724857Y-119138000D02*
X116582000Y-119066571D01*
X116367714Y-119066571D01*
X116153429Y-119138000D01*
X116010571Y-119280857D01*
X115939143Y-119423714D01*
X115867714Y-119709429D01*
X115867714Y-119923714D01*
X115939143Y-120209429D01*
X116010571Y-120352286D01*
X116153429Y-120495143D01*
X116367714Y-120566571D01*
X116510571Y-120566571D01*
X116724857Y-120495143D01*
X116796286Y-120423714D01*
X116796286Y-119923714D01*
X116510571Y-119923714D01*
X112712572Y-119741143D02*
X113855429Y-119741143D01*
X113284000Y-120312571D02*
X113284000Y-119169714D01*
D12*
X114730000Y-115730000D02*
X117270000Y-115730000D01*
X111910000Y-115450000D02*
X113460000Y-115450000D01*
X114730000Y-115730000D02*
X114730000Y-118270000D01*
X113460000Y-118550000D02*
X111910000Y-118550000D01*
X111910000Y-118550000D02*
X111910000Y-115450000D01*
X114730000Y-118270000D02*
X117270000Y-118270000D01*
X117270000Y-118270000D02*
X117270000Y-115730000D01*
X110244000Y-110018000D02*
X116244000Y-110018000D01*
X116244000Y-114518000D02*
X110244000Y-114518000D01*
X119500000Y-103750000D02*
X125500000Y-103750000D01*
X125500000Y-108250000D02*
X119500000Y-108250000D01*
X113050000Y-104890000D02*
X116050000Y-104890000D01*
X116050000Y-107390000D02*
X113050000Y-107390000D01*
X101325000Y-112501000D02*
X101325000Y-117499000D01*
X101465000Y-112509000D02*
X101465000Y-117491000D01*
X101605000Y-112525000D02*
X101605000Y-114905000D01*
X101605000Y-115095000D02*
X101605000Y-117475000D01*
X101745000Y-112549000D02*
X101745000Y-114510000D01*
X101745000Y-115490000D02*
X101745000Y-117451000D01*
X101885000Y-112582000D02*
X101885000Y-114343000D01*
X101885000Y-115657000D02*
X101885000Y-117418000D01*
X102025000Y-112623000D02*
X102025000Y-114236000D01*
X102025000Y-115764000D02*
X102025000Y-117377000D01*
X102165000Y-112673000D02*
X102165000Y-114165000D01*
X102165000Y-115835000D02*
X102165000Y-117327000D01*
X102305000Y-112734000D02*
X102305000Y-114121000D01*
X102305000Y-115879000D02*
X102305000Y-117266000D01*
X102445000Y-112804000D02*
X102445000Y-114102000D01*
X102445000Y-115898000D02*
X102445000Y-117196000D01*
X102585000Y-112886000D02*
X102585000Y-114104000D01*
X102585000Y-115896000D02*
X102585000Y-117114000D01*
X102725000Y-112981000D02*
X102725000Y-114129000D01*
X102725000Y-115871000D02*
X102725000Y-117019000D01*
X102865000Y-113092000D02*
X102865000Y-114177000D01*
X102865000Y-115823000D02*
X102865000Y-116908000D01*
X103005000Y-113220000D02*
X103005000Y-114255000D01*
X103005000Y-115745000D02*
X103005000Y-116780000D01*
X103145000Y-113369000D02*
X103145000Y-114372000D01*
X103145000Y-115628000D02*
X103145000Y-116631000D01*
X103285000Y-113548000D02*
X103285000Y-114560000D01*
X103285000Y-115440000D02*
X103285000Y-116452000D01*
X103425000Y-113767000D02*
X103425000Y-116233000D01*
X103565000Y-114056000D02*
X103565000Y-115944000D01*
X103705000Y-114528000D02*
X103705000Y-115472000D01*
X103400000Y-115000000D02*
G75*
G03X103400000Y-115000000I-900000J0D01*
G01*
X103787500Y-115000000D02*
G75*
G03X103787500Y-115000000I-2537500J0D01*
G01*
X101925000Y-90941000D02*
X101925000Y-95939000D01*
X102065000Y-90949000D02*
X102065000Y-95931000D01*
X102205000Y-90965000D02*
X102205000Y-93345000D01*
X102205000Y-93535000D02*
X102205000Y-95915000D01*
X102345000Y-90989000D02*
X102345000Y-92950000D01*
X102345000Y-93930000D02*
X102345000Y-95891000D01*
X102485000Y-91022000D02*
X102485000Y-92783000D01*
X102485000Y-94097000D02*
X102485000Y-95858000D01*
X102625000Y-91063000D02*
X102625000Y-92676000D01*
X102625000Y-94204000D02*
X102625000Y-95817000D01*
X102765000Y-91113000D02*
X102765000Y-92605000D01*
X102765000Y-94275000D02*
X102765000Y-95767000D01*
X102905000Y-91174000D02*
X102905000Y-92561000D01*
X102905000Y-94319000D02*
X102905000Y-95706000D01*
X103045000Y-91244000D02*
X103045000Y-92542000D01*
X103045000Y-94338000D02*
X103045000Y-95636000D01*
X103185000Y-91326000D02*
X103185000Y-92544000D01*
X103185000Y-94336000D02*
X103185000Y-95554000D01*
X103325000Y-91421000D02*
X103325000Y-92569000D01*
X103325000Y-94311000D02*
X103325000Y-95459000D01*
X103465000Y-91532000D02*
X103465000Y-92617000D01*
X103465000Y-94263000D02*
X103465000Y-95348000D01*
X103605000Y-91660000D02*
X103605000Y-92695000D01*
X103605000Y-94185000D02*
X103605000Y-95220000D01*
X103745000Y-91809000D02*
X103745000Y-92812000D01*
X103745000Y-94068000D02*
X103745000Y-95071000D01*
X103885000Y-91988000D02*
X103885000Y-93000000D01*
X103885000Y-93880000D02*
X103885000Y-94892000D01*
X104025000Y-92207000D02*
X104025000Y-94673000D01*
X104165000Y-92496000D02*
X104165000Y-94384000D01*
X104305000Y-92968000D02*
X104305000Y-93912000D01*
X104000000Y-93440000D02*
G75*
G03X104000000Y-93440000I-900000J0D01*
G01*
X104387500Y-93440000D02*
G75*
G03X104387500Y-93440000I-2537500J0D01*
G01*
X138501000Y-117614000D02*
X138501000Y-117414000D01*
X138501000Y-115020000D02*
X138501000Y-115200000D01*
X141728744Y-115330357D02*
G75*
G03X138501000Y-115014000I-1727744J-1003643D01*
G01*
X141053006Y-115200932D02*
G75*
G03X138950000Y-115200000I-1052006J-1133068D01*
G01*
X138513780Y-117640726D02*
G75*
G03X141751000Y-117294000I1497220J1306726D01*
G01*
X138987111Y-117413253D02*
G75*
G03X141035000Y-117394000I1013889J1079253D01*
G01*
X130881000Y-117614000D02*
X130881000Y-117414000D01*
X130881000Y-115020000D02*
X130881000Y-115200000D01*
X134108744Y-115330357D02*
G75*
G03X130881000Y-115014000I-1727744J-1003643D01*
G01*
X133433006Y-115200932D02*
G75*
G03X131330000Y-115200000I-1052006J-1133068D01*
G01*
X130893780Y-117640726D02*
G75*
G03X134131000Y-117294000I1497220J1306726D01*
G01*
X131367111Y-117413253D02*
G75*
G03X133415000Y-117394000I1013889J1079253D01*
G01*
X104410000Y-74390000D02*
X104410000Y-76930000D01*
X104690000Y-71570000D02*
X104690000Y-73120000D01*
X104410000Y-74390000D02*
X101870000Y-74390000D01*
X101590000Y-73120000D02*
X101590000Y-71570000D01*
X101590000Y-71570000D02*
X104690000Y-71570000D01*
X101870000Y-74390000D02*
X101870000Y-76930000D01*
X101870000Y-76930000D02*
X104410000Y-76930000D01*
X78232000Y-95250000D02*
X78232000Y-97790000D01*
X78512000Y-92430000D02*
X78512000Y-93980000D01*
X78232000Y-95250000D02*
X75692000Y-95250000D01*
X75412000Y-93980000D02*
X75412000Y-92430000D01*
X75412000Y-92430000D02*
X78512000Y-92430000D01*
X75692000Y-95250000D02*
X75692000Y-97790000D01*
X75692000Y-97790000D02*
X78232000Y-97790000D01*
X109490000Y-74390000D02*
X109490000Y-97250000D01*
X109490000Y-97250000D02*
X106950000Y-97250000D01*
X106950000Y-97250000D02*
X106950000Y-74390000D01*
X109770000Y-71570000D02*
X109770000Y-73120000D01*
X109490000Y-74390000D02*
X106950000Y-74390000D01*
X106670000Y-73120000D02*
X106670000Y-71570000D01*
X106670000Y-71570000D02*
X109770000Y-71570000D01*
X147590000Y-74390000D02*
X147590000Y-97250000D01*
X147590000Y-97250000D02*
X145050000Y-97250000D01*
X145050000Y-97250000D02*
X145050000Y-74390000D01*
X147870000Y-71570000D02*
X147870000Y-73120000D01*
X147590000Y-74390000D02*
X145050000Y-74390000D01*
X144770000Y-73120000D02*
X144770000Y-71570000D01*
X144770000Y-71570000D02*
X147870000Y-71570000D01*
X161290000Y-107950000D02*
X161290000Y-82550000D01*
X156210000Y-85090000D02*
X156210000Y-107950000D01*
X161290000Y-107950000D02*
X156210000Y-107950000D01*
X161290000Y-82550000D02*
X158750000Y-82550000D01*
X157480000Y-82270000D02*
X155930000Y-82270000D01*
X158750000Y-82550000D02*
X158750000Y-85090000D01*
X158750000Y-85090000D02*
X156210000Y-85090000D01*
X155930000Y-82270000D02*
X155930000Y-83820000D01*
X156210000Y-107950000D02*
X156210000Y-82550000D01*
X151130000Y-85090000D02*
X151130000Y-107950000D01*
X156210000Y-107950000D02*
X151130000Y-107950000D01*
X156210000Y-82550000D02*
X153670000Y-82550000D01*
X152400000Y-82270000D02*
X150850000Y-82270000D01*
X153670000Y-82550000D02*
X153670000Y-85090000D01*
X153670000Y-85090000D02*
X151130000Y-85090000D01*
X150850000Y-82270000D02*
X150850000Y-83820000D01*
X68730000Y-77270000D02*
X68730000Y-84890000D01*
X71270000Y-77270000D02*
X71270000Y-84890000D01*
X71550000Y-74450000D02*
X71550000Y-76000000D01*
X68730000Y-84890000D02*
X71270000Y-84890000D01*
X71270000Y-77270000D02*
X68730000Y-77270000D01*
X68450000Y-76000000D02*
X68450000Y-74450000D01*
X68450000Y-74450000D02*
X71550000Y-74450000D01*
X68730000Y-105270000D02*
X68730000Y-112890000D01*
X71270000Y-105270000D02*
X71270000Y-112890000D01*
X71550000Y-102450000D02*
X71550000Y-104000000D01*
X68730000Y-112890000D02*
X71270000Y-112890000D01*
X71270000Y-105270000D02*
X68730000Y-105270000D01*
X68450000Y-104000000D02*
X68450000Y-102450000D01*
X68450000Y-102450000D02*
X71550000Y-102450000D01*
X131080000Y-107410000D02*
X131080000Y-109950000D01*
X131080000Y-109950000D02*
X141240000Y-109950000D01*
X141240000Y-109950000D02*
X141240000Y-107410000D01*
X141240000Y-107410000D02*
X131080000Y-107410000D01*
X142510000Y-108680000D02*
X141240000Y-108680000D01*
X129810000Y-108680000D02*
X131080000Y-108680000D01*
X131080000Y-102330000D02*
X131080000Y-104870000D01*
X131080000Y-104870000D02*
X141240000Y-104870000D01*
X141240000Y-104870000D02*
X141240000Y-102330000D01*
X141240000Y-102330000D02*
X131080000Y-102330000D01*
X142510000Y-103600000D02*
X141240000Y-103600000D01*
X129810000Y-103600000D02*
X131080000Y-103600000D01*
X75730000Y-114080000D02*
X78270000Y-114080000D01*
X78270000Y-114080000D02*
X78270000Y-103920000D01*
X78270000Y-103920000D02*
X75730000Y-103920000D01*
X75730000Y-103920000D02*
X75730000Y-114080000D01*
X77000000Y-102650000D02*
X77000000Y-103920000D01*
X77000000Y-115350000D02*
X77000000Y-114080000D01*
X123595000Y-70825000D02*
X123595000Y-72095000D01*
X130945000Y-70825000D02*
X130945000Y-72095000D01*
X130945000Y-98275000D02*
X130945000Y-97005000D01*
X123595000Y-98275000D02*
X123595000Y-97005000D01*
X123595000Y-70825000D02*
X130945000Y-70825000D01*
X123595000Y-98275000D02*
X130945000Y-98275000D01*
X123595000Y-72095000D02*
X122660000Y-72095000D01*
X106758000Y-108126000D02*
X110158000Y-108126000D01*
X106760944Y-108123056D02*
G75*
G02X108458000Y-104026000I1697056J1697056D01*
G01*
X110155056Y-108123056D02*
G75*
G03X108458000Y-104026000I-1697056J1697056D01*
G01*
D13*
X91456000Y-70656200D02*
X96561400Y-70668900D01*
X91456000Y-93376500D02*
X96536000Y-93376500D01*
D12*
X90300000Y-93190000D02*
X95400000Y-93190000D01*
X90300000Y-70830000D02*
X95330000Y-70830000D01*
X82955000Y-70825000D02*
X82955000Y-72095000D01*
X95385000Y-70825000D02*
X95385000Y-72095000D01*
X95385000Y-93195000D02*
X95385000Y-91925000D01*
X82955000Y-93195000D02*
X82955000Y-91925000D01*
X82955000Y-70825000D02*
X90305000Y-70825000D01*
X82955000Y-93195000D02*
X90305000Y-93195000D01*
X82955000Y-72095000D02*
X82020000Y-72095000D01*
D13*
X91456000Y-96056200D02*
X96561400Y-96068900D01*
X91456000Y-118776500D02*
X96536000Y-118776500D01*
D12*
X90300000Y-118590000D02*
X95400000Y-118590000D01*
X90300000Y-96230000D02*
X95330000Y-96230000D01*
X82955000Y-96225000D02*
X82955000Y-97495000D01*
X95385000Y-96225000D02*
X95385000Y-97495000D01*
X95385000Y-118595000D02*
X95385000Y-117325000D01*
X82955000Y-118595000D02*
X82955000Y-117325000D01*
X82955000Y-96225000D02*
X90305000Y-96225000D01*
X82955000Y-118595000D02*
X90305000Y-118595000D01*
X82955000Y-97495000D02*
X82020000Y-97495000D01*
X125349000Y-114935000D02*
X127889000Y-114935000D01*
X122529000Y-114655000D02*
X124079000Y-114655000D01*
X125349000Y-114935000D02*
X125349000Y-117475000D01*
X124079000Y-117755000D02*
X122529000Y-117755000D01*
X122529000Y-117755000D02*
X122529000Y-114655000D01*
X125349000Y-117475000D02*
X127889000Y-117475000D01*
X127889000Y-117475000D02*
X127889000Y-114935000D01*
X72136000Y-67056000D02*
G75*
G03X72136000Y-67056000I-2286000J0D01*
G01*
X162560000Y-67056000D02*
G75*
G03X162560000Y-67056000I-2286000J0D01*
G01*
X72136000Y-119126000D02*
G75*
G03X72136000Y-119126000I-2286000J0D01*
G01*
X162560000Y-119126000D02*
G75*
G03X162560000Y-119126000I-2286000J0D01*
G01*
X108288571Y-117785714D02*
X108336190Y-117642857D01*
X108383810Y-117595238D01*
X108479048Y-117547619D01*
X108621905Y-117547619D01*
X108717143Y-117595238D01*
X108764762Y-117642857D01*
X108812381Y-117738095D01*
X108812381Y-118119048D01*
X107812381Y-118119048D01*
X107812381Y-117785714D01*
X107860000Y-117690476D01*
X107907619Y-117642857D01*
X108002857Y-117595238D01*
X108098095Y-117595238D01*
X108193333Y-117642857D01*
X108240952Y-117690476D01*
X108288571Y-117785714D01*
X108288571Y-118119048D01*
X107812381Y-117261905D02*
X107812381Y-116690476D01*
X108812381Y-116976191D02*
X107812381Y-116976191D01*
X108812381Y-115833333D02*
X108812381Y-116404762D01*
X108812381Y-116119048D02*
X107812381Y-116119048D01*
X107955238Y-116214286D01*
X108050476Y-116309524D01*
X108098095Y-116404762D01*
X113077334Y-109125143D02*
X113029715Y-109172762D01*
X112886858Y-109220381D01*
X112791620Y-109220381D01*
X112648762Y-109172762D01*
X112553524Y-109077524D01*
X112505905Y-108982286D01*
X112458286Y-108791810D01*
X112458286Y-108648952D01*
X112505905Y-108458476D01*
X112553524Y-108363238D01*
X112648762Y-108268000D01*
X112791620Y-108220381D01*
X112886858Y-108220381D01*
X113029715Y-108268000D01*
X113077334Y-108315619D01*
X114029715Y-109220381D02*
X113458286Y-109220381D01*
X113744000Y-109220381D02*
X113744000Y-108220381D01*
X113648762Y-108363238D01*
X113553524Y-108458476D01*
X113458286Y-108506095D01*
X122333334Y-102857143D02*
X122285715Y-102904762D01*
X122142858Y-102952381D01*
X122047620Y-102952381D01*
X121904762Y-102904762D01*
X121809524Y-102809524D01*
X121761905Y-102714286D01*
X121714286Y-102523810D01*
X121714286Y-102380952D01*
X121761905Y-102190476D01*
X121809524Y-102095238D01*
X121904762Y-102000000D01*
X122047620Y-101952381D01*
X122142858Y-101952381D01*
X122285715Y-102000000D01*
X122333334Y-102047619D01*
X122714286Y-102047619D02*
X122761905Y-102000000D01*
X122857143Y-101952381D01*
X123095239Y-101952381D01*
X123190477Y-102000000D01*
X123238096Y-102047619D01*
X123285715Y-102142857D01*
X123285715Y-102238095D01*
X123238096Y-102380952D01*
X122666667Y-102952381D01*
X123285715Y-102952381D01*
X114383334Y-103997143D02*
X114335715Y-104044762D01*
X114192858Y-104092381D01*
X114097620Y-104092381D01*
X113954762Y-104044762D01*
X113859524Y-103949524D01*
X113811905Y-103854286D01*
X113764286Y-103663810D01*
X113764286Y-103520952D01*
X113811905Y-103330476D01*
X113859524Y-103235238D01*
X113954762Y-103140000D01*
X114097620Y-103092381D01*
X114192858Y-103092381D01*
X114335715Y-103140000D01*
X114383334Y-103187619D01*
X114716667Y-103092381D02*
X115335715Y-103092381D01*
X115002381Y-103473333D01*
X115145239Y-103473333D01*
X115240477Y-103520952D01*
X115288096Y-103568571D01*
X115335715Y-103663810D01*
X115335715Y-103901905D01*
X115288096Y-103997143D01*
X115240477Y-104044762D01*
X115145239Y-104092381D01*
X114859524Y-104092381D01*
X114764286Y-104044762D01*
X114716667Y-103997143D01*
X101083334Y-111557143D02*
X101035715Y-111604762D01*
X100892858Y-111652381D01*
X100797620Y-111652381D01*
X100654762Y-111604762D01*
X100559524Y-111509524D01*
X100511905Y-111414286D01*
X100464286Y-111223810D01*
X100464286Y-111080952D01*
X100511905Y-110890476D01*
X100559524Y-110795238D01*
X100654762Y-110700000D01*
X100797620Y-110652381D01*
X100892858Y-110652381D01*
X101035715Y-110700000D01*
X101083334Y-110747619D01*
X101940477Y-110985714D02*
X101940477Y-111652381D01*
X101702381Y-110604762D02*
X101464286Y-111319048D01*
X102083334Y-111319048D01*
X101683334Y-89997143D02*
X101635715Y-90044762D01*
X101492858Y-90092381D01*
X101397620Y-90092381D01*
X101254762Y-90044762D01*
X101159524Y-89949524D01*
X101111905Y-89854286D01*
X101064286Y-89663810D01*
X101064286Y-89520952D01*
X101111905Y-89330476D01*
X101159524Y-89235238D01*
X101254762Y-89140000D01*
X101397620Y-89092381D01*
X101492858Y-89092381D01*
X101635715Y-89140000D01*
X101683334Y-89187619D01*
X102588096Y-89092381D02*
X102111905Y-89092381D01*
X102064286Y-89568571D01*
X102111905Y-89520952D01*
X102207143Y-89473333D01*
X102445239Y-89473333D01*
X102540477Y-89520952D01*
X102588096Y-89568571D01*
X102635715Y-89663810D01*
X102635715Y-89901905D01*
X102588096Y-89997143D01*
X102540477Y-90044762D01*
X102445239Y-90092381D01*
X102207143Y-90092381D01*
X102111905Y-90044762D01*
X102064286Y-89997143D01*
X139871905Y-119812381D02*
X139871905Y-118812381D01*
X140110000Y-118812381D01*
X140252858Y-118860000D01*
X140348096Y-118955238D01*
X140395715Y-119050476D01*
X140443334Y-119240952D01*
X140443334Y-119383810D01*
X140395715Y-119574286D01*
X140348096Y-119669524D01*
X140252858Y-119764762D01*
X140110000Y-119812381D01*
X139871905Y-119812381D01*
X141395715Y-119812381D02*
X140824286Y-119812381D01*
X141110000Y-119812381D02*
X141110000Y-118812381D01*
X141014762Y-118955238D01*
X140919524Y-119050476D01*
X140824286Y-119098095D01*
X136748095Y-118492381D02*
X136748095Y-117492381D01*
X137319524Y-118492381D02*
X136890952Y-117920952D01*
X137319524Y-117492381D02*
X136748095Y-118063810D01*
X132251905Y-119812381D02*
X132251905Y-118812381D01*
X132490000Y-118812381D01*
X132632858Y-118860000D01*
X132728096Y-118955238D01*
X132775715Y-119050476D01*
X132823334Y-119240952D01*
X132823334Y-119383810D01*
X132775715Y-119574286D01*
X132728096Y-119669524D01*
X132632858Y-119764762D01*
X132490000Y-119812381D01*
X132251905Y-119812381D01*
X133204286Y-118907619D02*
X133251905Y-118860000D01*
X133347143Y-118812381D01*
X133585239Y-118812381D01*
X133680477Y-118860000D01*
X133728096Y-118907619D01*
X133775715Y-119002857D01*
X133775715Y-119098095D01*
X133728096Y-119240952D01*
X133156667Y-119812381D01*
X133775715Y-119812381D01*
X129128095Y-118492381D02*
X129128095Y-117492381D01*
X129699524Y-118492381D02*
X129270952Y-117920952D01*
X129699524Y-117492381D02*
X129128095Y-118063810D01*
X102806667Y-67472381D02*
X102806667Y-68186667D01*
X102759047Y-68329524D01*
X102663809Y-68424762D01*
X102520952Y-68472381D01*
X102425714Y-68472381D01*
X103806667Y-68472381D02*
X103235238Y-68472381D01*
X103520952Y-68472381D02*
X103520952Y-67472381D01*
X103425714Y-67615238D01*
X103330476Y-67710476D01*
X103235238Y-67758095D01*
X76628667Y-88332381D02*
X76628667Y-89046667D01*
X76581047Y-89189524D01*
X76485809Y-89284762D01*
X76342952Y-89332381D01*
X76247714Y-89332381D01*
X77057238Y-88427619D02*
X77104857Y-88380000D01*
X77200095Y-88332381D01*
X77438191Y-88332381D01*
X77533429Y-88380000D01*
X77581048Y-88427619D01*
X77628667Y-88522857D01*
X77628667Y-88618095D01*
X77581048Y-88760952D01*
X77009619Y-89332381D01*
X77628667Y-89332381D01*
X107481905Y-68472381D02*
X107481905Y-67472381D01*
X107862858Y-67472381D01*
X107958096Y-67520000D01*
X108005715Y-67567619D01*
X108053334Y-67662857D01*
X108053334Y-67805714D01*
X108005715Y-67900952D01*
X107958096Y-67948571D01*
X107862858Y-67996190D01*
X107481905Y-67996190D01*
X109005715Y-68472381D02*
X108434286Y-68472381D01*
X108720000Y-68472381D02*
X108720000Y-67472381D01*
X108624762Y-67615238D01*
X108529524Y-67710476D01*
X108434286Y-67758095D01*
X145581905Y-68472381D02*
X145581905Y-67472381D01*
X145962858Y-67472381D01*
X146058096Y-67520000D01*
X146105715Y-67567619D01*
X146153334Y-67662857D01*
X146153334Y-67805714D01*
X146105715Y-67900952D01*
X146058096Y-67948571D01*
X145962858Y-67996190D01*
X145581905Y-67996190D01*
X146534286Y-67567619D02*
X146581905Y-67520000D01*
X146677143Y-67472381D01*
X146915239Y-67472381D01*
X147010477Y-67520000D01*
X147058096Y-67567619D01*
X147105715Y-67662857D01*
X147105715Y-67758095D01*
X147058096Y-67900952D01*
X146486667Y-68472381D01*
X147105715Y-68472381D01*
X156741905Y-79172381D02*
X156741905Y-78172381D01*
X157122858Y-78172381D01*
X157218096Y-78220000D01*
X157265715Y-78267619D01*
X157313334Y-78362857D01*
X157313334Y-78505714D01*
X157265715Y-78600952D01*
X157218096Y-78648571D01*
X157122858Y-78696190D01*
X156741905Y-78696190D01*
X157646667Y-78172381D02*
X158265715Y-78172381D01*
X157932381Y-78553333D01*
X158075239Y-78553333D01*
X158170477Y-78600952D01*
X158218096Y-78648571D01*
X158265715Y-78743810D01*
X158265715Y-78981905D01*
X158218096Y-79077143D01*
X158170477Y-79124762D01*
X158075239Y-79172381D01*
X157789524Y-79172381D01*
X157694286Y-79124762D01*
X157646667Y-79077143D01*
X151661905Y-79172381D02*
X151661905Y-78172381D01*
X152042858Y-78172381D01*
X152138096Y-78220000D01*
X152185715Y-78267619D01*
X152233334Y-78362857D01*
X152233334Y-78505714D01*
X152185715Y-78600952D01*
X152138096Y-78648571D01*
X152042858Y-78696190D01*
X151661905Y-78696190D01*
X153090477Y-78505714D02*
X153090477Y-79172381D01*
X152852381Y-78124762D02*
X152614286Y-78839048D01*
X153233334Y-78839048D01*
X69261905Y-71352381D02*
X69261905Y-70352381D01*
X69642858Y-70352381D01*
X69738096Y-70400000D01*
X69785715Y-70447619D01*
X69833334Y-70542857D01*
X69833334Y-70685714D01*
X69785715Y-70780952D01*
X69738096Y-70828571D01*
X69642858Y-70876190D01*
X69261905Y-70876190D01*
X70738096Y-70352381D02*
X70261905Y-70352381D01*
X70214286Y-70828571D01*
X70261905Y-70780952D01*
X70357143Y-70733333D01*
X70595239Y-70733333D01*
X70690477Y-70780952D01*
X70738096Y-70828571D01*
X70785715Y-70923810D01*
X70785715Y-71161905D01*
X70738096Y-71257143D01*
X70690477Y-71304762D01*
X70595239Y-71352381D01*
X70357143Y-71352381D01*
X70261905Y-71304762D01*
X70214286Y-71257143D01*
X69261905Y-99352381D02*
X69261905Y-98352381D01*
X69642858Y-98352381D01*
X69738096Y-98400000D01*
X69785715Y-98447619D01*
X69833334Y-98542857D01*
X69833334Y-98685714D01*
X69785715Y-98780952D01*
X69738096Y-98828571D01*
X69642858Y-98876190D01*
X69261905Y-98876190D01*
X70690477Y-98352381D02*
X70500000Y-98352381D01*
X70404762Y-98400000D01*
X70357143Y-98447619D01*
X70261905Y-98590476D01*
X70214286Y-98780952D01*
X70214286Y-99161905D01*
X70261905Y-99257143D01*
X70309524Y-99304762D01*
X70404762Y-99352381D01*
X70595239Y-99352381D01*
X70690477Y-99304762D01*
X70738096Y-99257143D01*
X70785715Y-99161905D01*
X70785715Y-98923810D01*
X70738096Y-98828571D01*
X70690477Y-98780952D01*
X70595239Y-98733333D01*
X70404762Y-98733333D01*
X70309524Y-98780952D01*
X70261905Y-98828571D01*
X70214286Y-98923810D01*
X135993334Y-105383341D02*
X135660000Y-104907150D01*
X135421905Y-105383341D02*
X135421905Y-104383341D01*
X135802858Y-104383341D01*
X135898096Y-104430960D01*
X135945715Y-104478579D01*
X135993334Y-104573817D01*
X135993334Y-104716674D01*
X135945715Y-104811912D01*
X135898096Y-104859531D01*
X135802858Y-104907150D01*
X135421905Y-104907150D01*
X136945715Y-105383341D02*
X136374286Y-105383341D01*
X136660000Y-105383341D02*
X136660000Y-104383341D01*
X136564762Y-104526198D01*
X136469524Y-104621436D01*
X136374286Y-104669055D01*
X135993334Y-100303341D02*
X135660000Y-99827150D01*
X135421905Y-100303341D02*
X135421905Y-99303341D01*
X135802858Y-99303341D01*
X135898096Y-99350960D01*
X135945715Y-99398579D01*
X135993334Y-99493817D01*
X135993334Y-99636674D01*
X135945715Y-99731912D01*
X135898096Y-99779531D01*
X135802858Y-99827150D01*
X135421905Y-99827150D01*
X136374286Y-99398579D02*
X136421905Y-99350960D01*
X136517143Y-99303341D01*
X136755239Y-99303341D01*
X136850477Y-99350960D01*
X136898096Y-99398579D01*
X136945715Y-99493817D01*
X136945715Y-99589055D01*
X136898096Y-99731912D01*
X136326667Y-100303341D01*
X136945715Y-100303341D01*
X73703341Y-109166666D02*
X73227150Y-109500000D01*
X73703341Y-109738095D02*
X72703341Y-109738095D01*
X72703341Y-109357142D01*
X72750960Y-109261904D01*
X72798579Y-109214285D01*
X72893817Y-109166666D01*
X73036674Y-109166666D01*
X73131912Y-109214285D01*
X73179531Y-109261904D01*
X73227150Y-109357142D01*
X73227150Y-109738095D01*
X72703341Y-108833333D02*
X72703341Y-108214285D01*
X73084293Y-108547619D01*
X73084293Y-108404761D01*
X73131912Y-108309523D01*
X73179531Y-108261904D01*
X73274770Y-108214285D01*
X73512865Y-108214285D01*
X73608103Y-108261904D01*
X73655722Y-108309523D01*
X73703341Y-108404761D01*
X73703341Y-108690476D01*
X73655722Y-108785714D01*
X73608103Y-108833333D01*
X122698095Y-67352381D02*
X122698095Y-68161905D01*
X122745714Y-68257143D01*
X122793333Y-68304762D01*
X122888571Y-68352381D01*
X123079048Y-68352381D01*
X123174286Y-68304762D01*
X123221905Y-68257143D01*
X123269524Y-68161905D01*
X123269524Y-67352381D01*
X124269524Y-68352381D02*
X123698095Y-68352381D01*
X123983809Y-68352381D02*
X123983809Y-67352381D01*
X123888571Y-67495238D01*
X123793333Y-67590476D01*
X123698095Y-67638095D01*
X106426095Y-101878381D02*
X106426095Y-102687905D01*
X106473714Y-102783143D01*
X106521333Y-102830762D01*
X106616571Y-102878381D01*
X106807048Y-102878381D01*
X106902286Y-102830762D01*
X106949905Y-102783143D01*
X106997524Y-102687905D01*
X106997524Y-101878381D01*
X107426095Y-101973619D02*
X107473714Y-101926000D01*
X107568952Y-101878381D01*
X107807048Y-101878381D01*
X107902286Y-101926000D01*
X107949905Y-101973619D01*
X107997524Y-102068857D01*
X107997524Y-102164095D01*
X107949905Y-102306952D01*
X107378476Y-102878381D01*
X107997524Y-102878381D01*
X82058095Y-67352381D02*
X82058095Y-68161905D01*
X82105714Y-68257143D01*
X82153333Y-68304762D01*
X82248571Y-68352381D01*
X82439048Y-68352381D01*
X82534286Y-68304762D01*
X82581905Y-68257143D01*
X82629524Y-68161905D01*
X82629524Y-67352381D01*
X83010476Y-67352381D02*
X83629524Y-67352381D01*
X83296190Y-67733333D01*
X83439048Y-67733333D01*
X83534286Y-67780952D01*
X83581905Y-67828571D01*
X83629524Y-67923810D01*
X83629524Y-68161905D01*
X83581905Y-68257143D01*
X83534286Y-68304762D01*
X83439048Y-68352381D01*
X83153333Y-68352381D01*
X83058095Y-68304762D01*
X83010476Y-68257143D01*
X82058095Y-92752381D02*
X82058095Y-93561905D01*
X82105714Y-93657143D01*
X82153333Y-93704762D01*
X82248571Y-93752381D01*
X82439048Y-93752381D01*
X82534286Y-93704762D01*
X82581905Y-93657143D01*
X82629524Y-93561905D01*
X82629524Y-92752381D01*
X83534286Y-93085714D02*
X83534286Y-93752381D01*
X83296190Y-92704762D02*
X83058095Y-93419048D01*
X83677143Y-93419048D01*
X118431381Y-116538333D02*
X119145667Y-116538333D01*
X119288524Y-116585953D01*
X119383762Y-116681191D01*
X119431381Y-116824048D01*
X119431381Y-116919286D01*
X118431381Y-116157381D02*
X118431381Y-115538333D01*
X118812333Y-115871667D01*
X118812333Y-115728809D01*
X118859952Y-115633571D01*
X118907571Y-115585952D01*
X119002810Y-115538333D01*
X119240905Y-115538333D01*
X119336143Y-115585952D01*
X119383762Y-115633571D01*
X119431381Y-115728809D01*
X119431381Y-116014524D01*
X119383762Y-116109762D01*
X119336143Y-116157381D01*
X67945238Y-64460381D02*
X67945238Y-63460381D01*
X67945238Y-63936571D02*
X68516667Y-63936571D01*
X68516667Y-64460381D02*
X68516667Y-63460381D01*
X69135714Y-64460381D02*
X69040476Y-64412762D01*
X68992857Y-64365143D01*
X68945238Y-64269905D01*
X68945238Y-63984190D01*
X68992857Y-63888952D01*
X69040476Y-63841333D01*
X69135714Y-63793714D01*
X69278572Y-63793714D01*
X69373810Y-63841333D01*
X69421429Y-63888952D01*
X69469048Y-63984190D01*
X69469048Y-64269905D01*
X69421429Y-64365143D01*
X69373810Y-64412762D01*
X69278572Y-64460381D01*
X69135714Y-64460381D01*
X70040476Y-64460381D02*
X69945238Y-64412762D01*
X69897619Y-64317524D01*
X69897619Y-63460381D01*
X70802382Y-64412762D02*
X70707144Y-64460381D01*
X70516667Y-64460381D01*
X70421429Y-64412762D01*
X70373810Y-64317524D01*
X70373810Y-63936571D01*
X70421429Y-63841333D01*
X70516667Y-63793714D01*
X70707144Y-63793714D01*
X70802382Y-63841333D01*
X70850001Y-63936571D01*
X70850001Y-64031810D01*
X70373810Y-64127048D01*
X71802382Y-64460381D02*
X71230953Y-64460381D01*
X71516667Y-64460381D02*
X71516667Y-63460381D01*
X71421429Y-63603238D01*
X71326191Y-63698476D01*
X71230953Y-63746095D01*
X158369238Y-64460381D02*
X158369238Y-63460381D01*
X158369238Y-63936571D02*
X158940667Y-63936571D01*
X158940667Y-64460381D02*
X158940667Y-63460381D01*
X159559714Y-64460381D02*
X159464476Y-64412762D01*
X159416857Y-64365143D01*
X159369238Y-64269905D01*
X159369238Y-63984190D01*
X159416857Y-63888952D01*
X159464476Y-63841333D01*
X159559714Y-63793714D01*
X159702572Y-63793714D01*
X159797810Y-63841333D01*
X159845429Y-63888952D01*
X159893048Y-63984190D01*
X159893048Y-64269905D01*
X159845429Y-64365143D01*
X159797810Y-64412762D01*
X159702572Y-64460381D01*
X159559714Y-64460381D01*
X160464476Y-64460381D02*
X160369238Y-64412762D01*
X160321619Y-64317524D01*
X160321619Y-63460381D01*
X161226382Y-64412762D02*
X161131144Y-64460381D01*
X160940667Y-64460381D01*
X160845429Y-64412762D01*
X160797810Y-64317524D01*
X160797810Y-63936571D01*
X160845429Y-63841333D01*
X160940667Y-63793714D01*
X161131144Y-63793714D01*
X161226382Y-63841333D01*
X161274001Y-63936571D01*
X161274001Y-64031810D01*
X160797810Y-64127048D01*
X161654953Y-63555619D02*
X161702572Y-63508000D01*
X161797810Y-63460381D01*
X162035906Y-63460381D01*
X162131144Y-63508000D01*
X162178763Y-63555619D01*
X162226382Y-63650857D01*
X162226382Y-63746095D01*
X162178763Y-63888952D01*
X161607334Y-64460381D01*
X162226382Y-64460381D01*
X67945238Y-116530381D02*
X67945238Y-115530381D01*
X67945238Y-116006571D02*
X68516667Y-116006571D01*
X68516667Y-116530381D02*
X68516667Y-115530381D01*
X69135714Y-116530381D02*
X69040476Y-116482762D01*
X68992857Y-116435143D01*
X68945238Y-116339905D01*
X68945238Y-116054190D01*
X68992857Y-115958952D01*
X69040476Y-115911333D01*
X69135714Y-115863714D01*
X69278572Y-115863714D01*
X69373810Y-115911333D01*
X69421429Y-115958952D01*
X69469048Y-116054190D01*
X69469048Y-116339905D01*
X69421429Y-116435143D01*
X69373810Y-116482762D01*
X69278572Y-116530381D01*
X69135714Y-116530381D01*
X70040476Y-116530381D02*
X69945238Y-116482762D01*
X69897619Y-116387524D01*
X69897619Y-115530381D01*
X70802382Y-116482762D02*
X70707144Y-116530381D01*
X70516667Y-116530381D01*
X70421429Y-116482762D01*
X70373810Y-116387524D01*
X70373810Y-116006571D01*
X70421429Y-115911333D01*
X70516667Y-115863714D01*
X70707144Y-115863714D01*
X70802382Y-115911333D01*
X70850001Y-116006571D01*
X70850001Y-116101810D01*
X70373810Y-116197048D01*
X71183334Y-115530381D02*
X71802382Y-115530381D01*
X71469048Y-115911333D01*
X71611906Y-115911333D01*
X71707144Y-115958952D01*
X71754763Y-116006571D01*
X71802382Y-116101810D01*
X71802382Y-116339905D01*
X71754763Y-116435143D01*
X71707144Y-116482762D01*
X71611906Y-116530381D01*
X71326191Y-116530381D01*
X71230953Y-116482762D01*
X71183334Y-116435143D01*
X158369238Y-116530381D02*
X158369238Y-115530381D01*
X158369238Y-116006571D02*
X158940667Y-116006571D01*
X158940667Y-116530381D02*
X158940667Y-115530381D01*
X159559714Y-116530381D02*
X159464476Y-116482762D01*
X159416857Y-116435143D01*
X159369238Y-116339905D01*
X159369238Y-116054190D01*
X159416857Y-115958952D01*
X159464476Y-115911333D01*
X159559714Y-115863714D01*
X159702572Y-115863714D01*
X159797810Y-115911333D01*
X159845429Y-115958952D01*
X159893048Y-116054190D01*
X159893048Y-116339905D01*
X159845429Y-116435143D01*
X159797810Y-116482762D01*
X159702572Y-116530381D01*
X159559714Y-116530381D01*
X160464476Y-116530381D02*
X160369238Y-116482762D01*
X160321619Y-116387524D01*
X160321619Y-115530381D01*
X161226382Y-116482762D02*
X161131144Y-116530381D01*
X160940667Y-116530381D01*
X160845429Y-116482762D01*
X160797810Y-116387524D01*
X160797810Y-116006571D01*
X160845429Y-115911333D01*
X160940667Y-115863714D01*
X161131144Y-115863714D01*
X161226382Y-115911333D01*
X161274001Y-116006571D01*
X161274001Y-116101810D01*
X160797810Y-116197048D01*
X162131144Y-115863714D02*
X162131144Y-116530381D01*
X161893048Y-115482762D02*
X161654953Y-116197048D01*
X162274001Y-116197048D01*
M02*
