M48
;DRILL file {KiCad (2015-08-25 BZR 6127, Git a813deb)-product} date 9/4/2015 3:45:27 PM
;FORMAT={-:-/ absolute / inch / decimal}
FMAT,2
INCH,TZ
T1C0.024
T2C0.031
T3C0.032
T4C0.035
T5C0.039
T6C0.040
T7C0.120
%
G90
G05
M72
T1
X4.22Y-4.19
X4.27Y-4.19
X4.32Y-4.19
T2
X3.2606Y-2.8787
X3.2606Y-2.9787
X3.2606Y-3.0787
X3.2606Y-3.1787
X3.2606Y-3.2787
X3.2606Y-3.3787
X3.2606Y-3.4787
X3.2606Y-3.5787
X3.2606Y-3.8787
X3.2606Y-3.9787
X3.2606Y-4.0787
X3.2606Y-4.1787
X3.2606Y-4.2787
X3.2606Y-4.3787
X3.2606Y-4.4787
X3.2606Y-4.5787
X3.7606Y-2.8787
X3.7606Y-2.9787
X3.7606Y-3.0787
X3.7606Y-3.1787
X3.7606Y-3.2787
X3.7606Y-3.3787
X3.7606Y-3.4787
X3.7606Y-3.5787
X3.7606Y-3.8787
X3.7606Y-3.9787
X3.7606Y-4.0787
X3.7606Y-4.1787
X3.7606Y-4.2787
X3.7606Y-4.3787
X3.7606Y-4.4787
X3.7606Y-4.5787
X3.937Y-4.5276
X3.9606Y-3.6787
X4.0354Y-4.5276
X4.0591Y-3.6787
X4.4606Y-4.1787
X4.8606Y-2.8787
X4.8606Y-2.9787
X4.8606Y-3.0787
X4.8606Y-3.1787
X4.8606Y-3.2787
X4.8606Y-3.3787
X4.8606Y-3.4787
X4.8606Y-3.5787
X4.8606Y-3.6787
X4.8606Y-3.7787
X5.1606Y-2.8787
X5.1606Y-2.9787
X5.1606Y-3.0787
X5.1606Y-3.1787
X5.1606Y-3.2787
X5.1606Y-3.3787
X5.1606Y-3.4787
X5.1606Y-3.5787
X5.1606Y-3.6787
X5.1606Y-3.7787
T3
X4.5591Y-4.1787
T4
X4.36Y-4.42
X4.5569Y-4.42
X4.7244Y-4.1732
X4.9213Y-4.1732
T5
X3.0315Y-3.9961
X3.0315Y-4.5866
X5.0654Y-4.0787
X5.0654Y-4.2787
X5.1606Y-4.5787
X5.2606Y-4.5787
X5.4606Y-4.5787
X5.5606Y-4.5787
X5.6559Y-4.0787
X5.6559Y-4.2787
T6
X2.7559Y-2.9921
X2.7559Y-3.0921
X2.7559Y-3.1921
X2.7559Y-3.2921
X2.7559Y-4.0945
X2.7559Y-4.1945
X2.7559Y-4.2945
X2.7559Y-4.3945
X3.03Y-3.7
X3.03Y-3.8
X4.0606Y-2.8787
X4.0606Y-2.9787
X4.2606Y-2.8787
X4.2606Y-2.9787
X4.2606Y-3.0787
X4.2606Y-3.1787
X4.2606Y-3.2787
X4.2606Y-3.3787
X4.2606Y-3.4787
X4.2606Y-3.5787
X4.2606Y-3.6787
X4.2606Y-3.7787
X4.4669Y-4.6063
X4.5669Y-4.6063
X4.885Y-4.575
X4.985Y-4.575
X5.7606Y-2.8787
X5.7606Y-2.9787
X5.7606Y-3.0787
X5.7606Y-3.1787
X5.7606Y-3.2787
X5.7606Y-3.3787
X5.7606Y-3.4787
X5.7606Y-3.5787
X5.7606Y-3.6787
X5.7606Y-3.7787
X6.Y-3.3
X6.Y-3.4
X6.Y-3.5
X6.Y-3.6
X6.Y-3.7
X6.Y-3.8
X6.Y-3.9
X6.Y-4.
X6.Y-4.1
X6.Y-4.2
X6.1Y-3.3
X6.1Y-3.4
X6.1Y-3.5
X6.1Y-3.6
X6.1Y-3.7
X6.1Y-3.8
X6.1Y-3.9
X6.1Y-4.
X6.1Y-4.1
X6.1Y-4.2
X6.2Y-3.3
X6.2Y-3.4
X6.2Y-3.5
X6.2Y-3.6
X6.2Y-3.7
X6.2Y-3.8
X6.2Y-3.9
X6.2Y-4.
X6.2Y-4.1
X6.2Y-4.2
X6.3Y-3.3
X6.3Y-3.4
X6.3Y-3.5
X6.3Y-3.6
X6.3Y-3.7
X6.3Y-3.8
X6.3Y-3.9
X6.3Y-4.
X6.3Y-4.1
X6.3Y-4.2
T7
X2.75Y-2.64
X2.75Y-4.69
X6.31Y-2.64
X6.31Y-4.69
T0
M30
