G04 #@! TF.FileFunction,Copper,L2,Bot,Signal*
%FSLAX46Y46*%
G04 Gerber Fmt 4.6, Leading zero omitted, Abs format (unit mm)*
G04 Created by KiCad (PCBNEW (2015-08-25 BZR 6127, Git a813deb)-product) date 9/4/2015 3:45:25 PM*
%MOMM*%
G01*
G04 APERTURE LIST*
%ADD10C,0.100000*%
%ADD11R,2.032000X2.032000*%
%ADD12O,2.032000X2.032000*%
%ADD13R,1.400000X1.400000*%
%ADD14C,1.400000*%
%ADD15R,1.300000X1.300000*%
%ADD16C,1.300000*%
%ADD17R,2.000000X2.000000*%
%ADD18C,2.000000*%
%ADD19R,2.032000X1.727200*%
%ADD20O,2.032000X1.727200*%
%ADD21R,1.727200X1.727200*%
%ADD22O,1.727200X1.727200*%
%ADD23C,1.998980*%
%ADD24O,1.600000X1.600000*%
%ADD25O,0.899160X1.501140*%
%ADD26C,4.064000*%
%ADD27C,0.600000*%
%ADD28C,0.300000*%
%ADD29C,0.250000*%
%ADD30C,0.254000*%
G04 APERTURE END LIST*
D10*
D11*
X113460000Y-117000000D03*
D12*
X116000000Y-117000000D03*
D13*
X110744000Y-112268000D03*
D14*
X115744000Y-112268000D03*
D13*
X120000000Y-106000000D03*
D14*
X125000000Y-106000000D03*
D15*
X113300000Y-106140000D03*
D16*
X115800000Y-106140000D03*
D15*
X100000000Y-115000000D03*
D16*
X102500000Y-115000000D03*
D15*
X100600000Y-93440000D03*
D16*
X103100000Y-93440000D03*
D17*
X138700000Y-116300000D03*
D18*
X141240000Y-116300000D03*
D17*
X131080000Y-116300000D03*
D18*
X133620000Y-116300000D03*
D11*
X103140000Y-73120000D03*
D12*
X103140000Y-75660000D03*
D11*
X76962000Y-93980000D03*
D12*
X76962000Y-96520000D03*
D19*
X108220000Y-73120000D03*
D20*
X108220000Y-75660000D03*
X108220000Y-78200000D03*
X108220000Y-80740000D03*
X108220000Y-83280000D03*
X108220000Y-85820000D03*
X108220000Y-88360000D03*
X108220000Y-90900000D03*
X108220000Y-93440000D03*
X108220000Y-95980000D03*
D19*
X146320000Y-73120000D03*
D20*
X146320000Y-75660000D03*
X146320000Y-78200000D03*
X146320000Y-80740000D03*
X146320000Y-83280000D03*
X146320000Y-85820000D03*
X146320000Y-88360000D03*
X146320000Y-90900000D03*
X146320000Y-93440000D03*
X146320000Y-95980000D03*
D21*
X157480000Y-83820000D03*
D22*
X160020000Y-83820000D03*
X157480000Y-86360000D03*
X160020000Y-86360000D03*
X157480000Y-88900000D03*
X160020000Y-88900000D03*
X157480000Y-91440000D03*
X160020000Y-91440000D03*
X157480000Y-93980000D03*
X160020000Y-93980000D03*
X157480000Y-96520000D03*
X160020000Y-96520000D03*
X157480000Y-99060000D03*
X160020000Y-99060000D03*
X157480000Y-101600000D03*
X160020000Y-101600000D03*
X157480000Y-104140000D03*
X160020000Y-104140000D03*
X157480000Y-106680000D03*
X160020000Y-106680000D03*
D21*
X152400000Y-83820000D03*
D22*
X154940000Y-83820000D03*
X152400000Y-86360000D03*
X154940000Y-86360000D03*
X152400000Y-88900000D03*
X154940000Y-88900000D03*
X152400000Y-91440000D03*
X154940000Y-91440000D03*
X152400000Y-93980000D03*
X154940000Y-93980000D03*
X152400000Y-96520000D03*
X154940000Y-96520000D03*
X152400000Y-99060000D03*
X154940000Y-99060000D03*
X152400000Y-101600000D03*
X154940000Y-101600000D03*
X152400000Y-104140000D03*
X154940000Y-104140000D03*
X152400000Y-106680000D03*
X154940000Y-106680000D03*
D19*
X70000000Y-76000000D03*
D20*
X70000000Y-78540000D03*
X70000000Y-81080000D03*
X70000000Y-83620000D03*
D19*
X70000000Y-104000000D03*
D20*
X70000000Y-106540000D03*
X70000000Y-109080000D03*
X70000000Y-111620000D03*
D23*
X128660000Y-108680000D03*
X143660000Y-108680000D03*
X128660000Y-103600000D03*
X143660000Y-103600000D03*
X77000000Y-116500000D03*
X77000000Y-101500000D03*
D24*
X123460000Y-73120000D03*
X123460000Y-75660000D03*
X123460000Y-78200000D03*
X123460000Y-80740000D03*
X123460000Y-83280000D03*
X123460000Y-85820000D03*
X123460000Y-88360000D03*
X123460000Y-90900000D03*
X123460000Y-93440000D03*
X123460000Y-95980000D03*
X131080000Y-95980000D03*
X131080000Y-93440000D03*
X131080000Y-90900000D03*
X131080000Y-88360000D03*
X131080000Y-85820000D03*
X131080000Y-83280000D03*
X131080000Y-80740000D03*
X131080000Y-78200000D03*
X131080000Y-75660000D03*
X131080000Y-73120000D03*
D25*
X108458000Y-106426000D03*
X109728000Y-106426000D03*
X107188000Y-106426000D03*
D24*
X82820000Y-73120000D03*
X82820000Y-75660000D03*
X82820000Y-78200000D03*
X82820000Y-80740000D03*
X82820000Y-83280000D03*
X82820000Y-85820000D03*
X82820000Y-88360000D03*
X82820000Y-90900000D03*
X95520000Y-90900000D03*
X95520000Y-88360000D03*
X95520000Y-85820000D03*
X95520000Y-83280000D03*
X95520000Y-80740000D03*
X95520000Y-78200000D03*
X95520000Y-75660000D03*
X95520000Y-73120000D03*
X82820000Y-98520000D03*
X82820000Y-101060000D03*
X82820000Y-103600000D03*
X82820000Y-106140000D03*
X82820000Y-108680000D03*
X82820000Y-111220000D03*
X82820000Y-113760000D03*
X82820000Y-116300000D03*
X95520000Y-116300000D03*
X95520000Y-113760000D03*
X95520000Y-111220000D03*
X95520000Y-108680000D03*
X95520000Y-106140000D03*
X95520000Y-103600000D03*
X95520000Y-101060000D03*
X95520000Y-98520000D03*
D11*
X124079000Y-116205000D03*
D12*
X126619000Y-116205000D03*
D26*
X69850000Y-67056000D03*
X160274000Y-67056000D03*
X69850000Y-119126000D03*
X160274000Y-119126000D03*
D27*
X112559400Y-115383700D02*
X113460000Y-115383700D01*
X110744000Y-113568300D02*
X112559400Y-115383700D01*
X110744000Y-112268000D02*
X110744000Y-113568300D01*
X113460000Y-117000000D02*
X113460000Y-115383700D01*
X100000000Y-95290300D02*
X100600000Y-94690300D01*
X100000000Y-115000000D02*
X100000000Y-95290300D01*
X100600000Y-93440000D02*
X100600000Y-94690300D01*
X82820000Y-98520000D02*
X81419700Y-98520000D01*
X124079000Y-116205000D02*
X124079000Y-114588700D01*
X81419700Y-112359700D02*
X81419700Y-98520000D01*
X82820000Y-113760000D02*
X81419700Y-112359700D01*
X81419700Y-98437700D02*
X76962000Y-93980000D01*
X81419700Y-98520000D02*
X81419700Y-98437700D01*
X82820000Y-88360000D02*
X81419700Y-88360000D01*
X76962000Y-93980000D02*
X76962000Y-92363700D01*
X77416000Y-92363700D02*
X81419700Y-88360000D01*
X76962000Y-92363700D02*
X77416000Y-92363700D01*
X81419700Y-74520300D02*
X82820000Y-73120000D01*
X81419700Y-88360000D02*
X81419700Y-74520300D01*
X131080000Y-73120000D02*
X132480300Y-73120000D01*
X132480300Y-73120000D02*
X133197900Y-73837500D01*
X133915400Y-73120000D02*
X133197900Y-73837500D01*
X146320000Y-73120000D02*
X133915400Y-73120000D01*
X125089200Y-114588700D02*
X124079000Y-114588700D01*
X132497700Y-107180200D02*
X125089200Y-114588700D01*
X132497700Y-74537700D02*
X132497700Y-107180200D01*
X133197900Y-73837500D02*
X132497700Y-74537700D01*
X108458000Y-98798000D02*
X108458000Y-106426000D01*
X103100000Y-93440000D02*
X108458000Y-98798000D01*
X115800000Y-106140000D02*
X112708000Y-109232000D01*
X112708000Y-109232000D02*
X115744000Y-112268000D01*
X108458000Y-106426000D02*
X108458000Y-107551800D01*
X112518000Y-109042000D02*
X112708000Y-109232000D01*
X108458000Y-109042000D02*
X112518000Y-109042000D01*
X108458000Y-107551800D02*
X108458000Y-109042000D01*
X108458000Y-109042000D02*
X102500000Y-115000000D01*
D28*
X95520000Y-78200000D02*
X95520000Y-80740000D01*
X152400000Y-106680000D02*
X152400000Y-104140000D01*
X152400000Y-104140000D02*
X152400000Y-101600000D01*
X152400000Y-101600000D02*
X152400000Y-99060000D01*
X152400000Y-99060000D02*
X152400000Y-96520000D01*
X152400000Y-96520000D02*
X152400000Y-93980000D01*
X152400000Y-93980000D02*
X152400000Y-91440000D01*
X152400000Y-91440000D02*
X152400000Y-88900000D01*
X152400000Y-88900000D02*
X152400000Y-86360000D01*
X152400000Y-86360000D02*
X152400000Y-83820000D01*
X95520000Y-80740000D02*
X95520000Y-81890300D01*
X95281600Y-81890300D02*
X95520000Y-81890300D01*
X93904200Y-83267700D02*
X95281600Y-81890300D01*
X93904200Y-101984200D02*
X93904200Y-83267700D01*
X95520000Y-103600000D02*
X93904200Y-101984200D01*
X78470000Y-115030000D02*
X77000000Y-116500000D01*
X85479700Y-115030000D02*
X78470000Y-115030000D01*
X94369700Y-106140000D02*
X85479700Y-115030000D01*
X95520000Y-106140000D02*
X94369700Y-106140000D01*
D29*
X141240000Y-111100000D02*
X141240000Y-116300000D01*
X143660000Y-108680000D02*
X141240000Y-111100000D01*
X133620000Y-113640000D02*
X133620000Y-116300000D01*
X143660000Y-103600000D02*
X133620000Y-113640000D01*
X95520000Y-111220000D02*
X95520000Y-113760000D01*
X95520000Y-111220000D02*
X95520000Y-108680000D01*
X95520000Y-83280000D02*
X95520000Y-85820000D01*
X95520000Y-85820000D02*
X95520000Y-88360000D01*
X123741300Y-76785300D02*
X123460000Y-76785300D01*
X126055300Y-79099300D02*
X123741300Y-76785300D01*
X126055300Y-106075300D02*
X126055300Y-79099300D01*
X128660000Y-108680000D02*
X126055300Y-106075300D01*
X123460000Y-75660000D02*
X123460000Y-76785300D01*
X158831100Y-82928300D02*
X158831100Y-83820000D01*
X158533900Y-82631100D02*
X158831100Y-82928300D01*
X156426100Y-82631100D02*
X158533900Y-82631100D01*
X156128900Y-82928300D02*
X156426100Y-82631100D01*
X156128900Y-83820000D02*
X156128900Y-82928300D01*
X154940000Y-83820000D02*
X156128900Y-83820000D01*
X160020000Y-83820000D02*
X158831100Y-83820000D01*
X158831100Y-88528400D02*
X158831100Y-88900000D01*
X158013800Y-87711100D02*
X158831100Y-88528400D01*
X156946300Y-87711100D02*
X158013800Y-87711100D01*
X156128900Y-88528500D02*
X156946300Y-87711100D01*
X156128900Y-88900000D02*
X156128900Y-88528500D01*
X154940000Y-88900000D02*
X156128900Y-88900000D01*
X160020000Y-88900000D02*
X158831100Y-88900000D01*
X158831100Y-91068400D02*
X158831100Y-91440000D01*
X158013800Y-90251100D02*
X158831100Y-91068400D01*
X156946300Y-90251100D02*
X158013800Y-90251100D01*
X156128900Y-91068500D02*
X156946300Y-90251100D01*
X156128900Y-91440000D02*
X156128900Y-91068500D01*
X154940000Y-91440000D02*
X156128900Y-91440000D01*
X160020000Y-91440000D02*
X158831100Y-91440000D01*
X158831100Y-93608400D02*
X158831100Y-93980000D01*
X158013800Y-92791100D02*
X158831100Y-93608400D01*
X156946300Y-92791100D02*
X158013800Y-92791100D01*
X156128900Y-93608500D02*
X156946300Y-92791100D01*
X156128900Y-93980000D02*
X156128900Y-93608500D01*
X154940000Y-93980000D02*
X156128900Y-93980000D01*
X160020000Y-93980000D02*
X158831100Y-93980000D01*
X94394700Y-93150600D02*
X95520000Y-92025300D01*
X94394700Y-101568800D02*
X94394700Y-93150600D01*
X95155900Y-102330000D02*
X94394700Y-101568800D01*
X95856500Y-102330000D02*
X95155900Y-102330000D01*
X96682500Y-103156000D02*
X95856500Y-102330000D01*
X96682500Y-114293500D02*
X96682500Y-103156000D01*
X95801300Y-115174700D02*
X96682500Y-114293500D01*
X95520000Y-115174700D02*
X95801300Y-115174700D01*
X95520000Y-116300000D02*
X95520000Y-115174700D01*
X95520000Y-90900000D02*
X95520000Y-92025300D01*
X107699900Y-92251100D02*
X108220000Y-92251100D01*
X96645300Y-81196500D02*
X107699900Y-92251100D01*
X96645300Y-75089200D02*
X96645300Y-81196500D01*
X95801400Y-74245300D02*
X96645300Y-75089200D01*
X95520000Y-74245300D02*
X95801400Y-74245300D01*
X95520000Y-73120000D02*
X95520000Y-74245300D01*
X108220000Y-93440000D02*
X108220000Y-92251100D01*
X128829400Y-74534700D02*
X129954700Y-75660000D01*
X122969300Y-74534700D02*
X128829400Y-74534700D01*
X116105700Y-81398300D02*
X122969300Y-74534700D01*
X116105700Y-87419700D02*
X116105700Y-81398300D01*
X108890200Y-94635200D02*
X116105700Y-87419700D01*
X106225900Y-94635200D02*
X108890200Y-94635200D01*
X103906000Y-92315300D02*
X106225900Y-94635200D01*
X99822500Y-92315300D02*
X103906000Y-92315300D01*
X96645300Y-95492500D02*
X99822500Y-92315300D01*
X96645300Y-99090800D02*
X96645300Y-95492500D01*
X95801400Y-99934700D02*
X96645300Y-99090800D01*
X95520000Y-99934700D02*
X95801400Y-99934700D01*
X95520000Y-101060000D02*
X95520000Y-99934700D01*
X131080000Y-75660000D02*
X129954700Y-75660000D01*
X158831100Y-103768400D02*
X158831100Y-104140000D01*
X158013800Y-102951100D02*
X158831100Y-103768400D01*
X156946300Y-102951100D02*
X158013800Y-102951100D01*
X156128900Y-103768500D02*
X156946300Y-102951100D01*
X156128900Y-104140000D02*
X156128900Y-103768500D01*
X154940000Y-104140000D02*
X156128900Y-104140000D01*
X160020000Y-104140000D02*
X158831100Y-104140000D01*
X154568400Y-105328900D02*
X154940000Y-105328900D01*
X153751100Y-106146200D02*
X154568400Y-105328900D01*
X153751100Y-107077500D02*
X153751100Y-106146200D01*
X152938500Y-107890100D02*
X153751100Y-107077500D01*
X151915300Y-107890100D02*
X152938500Y-107890100D01*
X144977300Y-100952100D02*
X151915300Y-107890100D01*
X144977300Y-80211500D02*
X144977300Y-100952100D01*
X145799900Y-79388900D02*
X144977300Y-80211500D01*
X146320000Y-79388900D02*
X145799900Y-79388900D01*
X146320000Y-78200000D02*
X146320000Y-79388900D01*
X154940000Y-104140000D02*
X154940000Y-105328900D01*
X160020000Y-101600000D02*
X160020000Y-100411100D01*
X156128900Y-101228400D02*
X156128900Y-101600000D01*
X156946200Y-100411100D02*
X156128900Y-101228400D01*
X160020000Y-100411100D02*
X156946200Y-100411100D01*
X154940000Y-101600000D02*
X156128900Y-101600000D01*
X160391500Y-100411100D02*
X160020000Y-100411100D01*
X161663200Y-99139400D02*
X160391500Y-100411100D01*
X161663200Y-83097000D02*
X161663200Y-99139400D01*
X159306200Y-80740000D02*
X161663200Y-83097000D01*
X146320000Y-80740000D02*
X159306200Y-80740000D01*
X160391600Y-97871100D02*
X160020000Y-97871100D01*
X161208900Y-97053800D02*
X160391600Y-97871100D01*
X161208900Y-83279600D02*
X161208900Y-97053800D01*
X160020400Y-82091100D02*
X161208900Y-83279600D01*
X146320000Y-82091100D02*
X160020400Y-82091100D01*
X146320000Y-83280000D02*
X146320000Y-82091100D01*
X160020000Y-99060000D02*
X160020000Y-97871100D01*
X156946200Y-97871100D02*
X160020000Y-97871100D01*
X156128900Y-98688400D02*
X156946200Y-97871100D01*
X156128900Y-99060000D02*
X156128900Y-98688400D01*
X154940000Y-99060000D02*
X156128900Y-99060000D01*
X146320000Y-85820000D02*
X146320000Y-84631100D01*
X154940000Y-96520000D02*
X154940000Y-95443700D01*
X154940000Y-95443700D02*
X154940000Y-95331100D01*
X158831100Y-96148400D02*
X158831100Y-96520000D01*
X158013800Y-95331100D02*
X158831100Y-96148400D01*
X154940000Y-95331100D02*
X158013800Y-95331100D01*
X160020000Y-96520000D02*
X158831100Y-96520000D01*
X154568400Y-95331100D02*
X154940000Y-95331100D01*
X153751100Y-94513800D02*
X154568400Y-95331100D01*
X153751100Y-82920600D02*
X153751100Y-94513800D01*
X153461500Y-82631000D02*
X153751100Y-82920600D01*
X150145800Y-82631000D02*
X153461500Y-82631000D01*
X148145700Y-84631100D02*
X150145800Y-82631000D01*
X146320000Y-84631100D02*
X148145700Y-84631100D01*
X128660000Y-91624000D02*
X128660000Y-103600000D01*
X130798700Y-89485300D02*
X128660000Y-91624000D01*
X131080000Y-89485300D02*
X130798700Y-89485300D01*
X131080000Y-88360000D02*
X131080000Y-89485300D01*
X158831100Y-106308400D02*
X158831100Y-106680000D01*
X158013800Y-105491100D02*
X158831100Y-106308400D01*
X156946300Y-105491100D02*
X158013800Y-105491100D01*
X156128900Y-106308500D02*
X156946300Y-105491100D01*
X156128900Y-106680000D02*
X156128900Y-106308500D01*
X154940000Y-106680000D02*
X156128900Y-106680000D01*
X160020000Y-106680000D02*
X158831100Y-106680000D01*
X157480000Y-86360000D02*
X157480000Y-83820000D01*
X132440900Y-117660900D02*
X131080000Y-116300000D01*
X136013800Y-117660900D02*
X132440900Y-117660900D01*
X137374700Y-116300000D02*
X136013800Y-117660900D01*
X138700000Y-116300000D02*
X137374700Y-116300000D01*
D30*
G36*
X118665000Y-105714250D02*
X118823750Y-105873000D01*
X119873000Y-105873000D01*
X119873000Y-105853000D01*
X120127000Y-105853000D01*
X120127000Y-105873000D01*
X120147000Y-105873000D01*
X120147000Y-106127000D01*
X120127000Y-106127000D01*
X120127000Y-107176250D01*
X120285750Y-107335000D01*
X120523000Y-107335000D01*
X120523000Y-110744000D01*
X120533006Y-110793410D01*
X120557669Y-110831201D01*
X124073645Y-114554000D01*
X123951998Y-114554000D01*
X123951998Y-114712748D01*
X123793250Y-114554000D01*
X122936690Y-114554000D01*
X122703301Y-114650673D01*
X122524673Y-114829302D01*
X122428000Y-115062691D01*
X122428000Y-115919250D01*
X122586750Y-116078000D01*
X123952000Y-116078000D01*
X123952000Y-116058000D01*
X124206000Y-116058000D01*
X124206000Y-116078000D01*
X124226000Y-116078000D01*
X124226000Y-116332000D01*
X124206000Y-116332000D01*
X124206000Y-117697250D01*
X124364750Y-117856000D01*
X124841000Y-117856000D01*
X124841000Y-118745000D01*
X115909984Y-118745000D01*
X115817122Y-118512846D01*
X115873000Y-118486836D01*
X115873000Y-117127000D01*
X116127000Y-117127000D01*
X116127000Y-118486836D01*
X116382944Y-118605975D01*
X116864818Y-118406385D01*
X117337188Y-117968379D01*
X117605983Y-117382946D01*
X117487367Y-117127000D01*
X116127000Y-117127000D01*
X115873000Y-117127000D01*
X115853000Y-117127000D01*
X115853000Y-116873000D01*
X115873000Y-116873000D01*
X115873000Y-115513164D01*
X116127000Y-115513164D01*
X116127000Y-116873000D01*
X117487367Y-116873000D01*
X117605983Y-116617054D01*
X117547992Y-116490750D01*
X122428000Y-116490750D01*
X122428000Y-117347309D01*
X122524673Y-117580698D01*
X122703301Y-117759327D01*
X122936690Y-117856000D01*
X123793250Y-117856000D01*
X123952000Y-117697250D01*
X123952000Y-116332000D01*
X122586750Y-116332000D01*
X122428000Y-116490750D01*
X117547992Y-116490750D01*
X117337188Y-116031621D01*
X116864818Y-115593615D01*
X116382944Y-115394025D01*
X116127000Y-115513164D01*
X115873000Y-115513164D01*
X115697000Y-115431238D01*
X115697000Y-113607509D01*
X116081440Y-113586664D01*
X116437831Y-113439042D01*
X116499669Y-113203275D01*
X115744000Y-112447605D01*
X115729858Y-112461748D01*
X115550253Y-112282143D01*
X115564395Y-112268000D01*
X115923605Y-112268000D01*
X116679275Y-113023669D01*
X116915042Y-112961831D01*
X117091419Y-112460878D01*
X117062664Y-111930560D01*
X116915042Y-111574169D01*
X116679275Y-111512331D01*
X115923605Y-112268000D01*
X115564395Y-112268000D01*
X114808725Y-111512331D01*
X114645857Y-111555049D01*
X114482820Y-111332725D01*
X114988331Y-111332725D01*
X115744000Y-112088395D01*
X116499669Y-111332725D01*
X116437831Y-111096958D01*
X115936878Y-110920581D01*
X115406560Y-110949336D01*
X115050169Y-111096958D01*
X114988331Y-111332725D01*
X114482820Y-111332725D01*
X112937998Y-109226150D01*
X114812684Y-107039016D01*
X115080590Y-107039016D01*
X115136271Y-107269611D01*
X115619078Y-107437622D01*
X116129428Y-107408083D01*
X116463729Y-107269611D01*
X116519410Y-107039016D01*
X115800000Y-106319605D01*
X115080590Y-107039016D01*
X114812684Y-107039016D01*
X115360520Y-106399875D01*
X115620395Y-106140000D01*
X115606253Y-106125858D01*
X115785858Y-105946253D01*
X115800000Y-105960395D01*
X115814142Y-105946252D01*
X115993748Y-106125858D01*
X115979605Y-106140000D01*
X116699016Y-106859410D01*
X116929611Y-106803729D01*
X117097622Y-106320922D01*
X117095587Y-106285750D01*
X118665000Y-106285750D01*
X118665000Y-106826310D01*
X118761673Y-107059699D01*
X118940302Y-107238327D01*
X119173691Y-107335000D01*
X119714250Y-107335000D01*
X119873000Y-107176250D01*
X119873000Y-106127000D01*
X118823750Y-106127000D01*
X118665000Y-106285750D01*
X117095587Y-106285750D01*
X117068083Y-105810572D01*
X116954766Y-105537000D01*
X118665000Y-105537000D01*
X118665000Y-105714250D01*
X118665000Y-105714250D01*
G37*
X118665000Y-105714250D02*
X118823750Y-105873000D01*
X119873000Y-105873000D01*
X119873000Y-105853000D01*
X120127000Y-105853000D01*
X120127000Y-105873000D01*
X120147000Y-105873000D01*
X120147000Y-106127000D01*
X120127000Y-106127000D01*
X120127000Y-107176250D01*
X120285750Y-107335000D01*
X120523000Y-107335000D01*
X120523000Y-110744000D01*
X120533006Y-110793410D01*
X120557669Y-110831201D01*
X124073645Y-114554000D01*
X123951998Y-114554000D01*
X123951998Y-114712748D01*
X123793250Y-114554000D01*
X122936690Y-114554000D01*
X122703301Y-114650673D01*
X122524673Y-114829302D01*
X122428000Y-115062691D01*
X122428000Y-115919250D01*
X122586750Y-116078000D01*
X123952000Y-116078000D01*
X123952000Y-116058000D01*
X124206000Y-116058000D01*
X124206000Y-116078000D01*
X124226000Y-116078000D01*
X124226000Y-116332000D01*
X124206000Y-116332000D01*
X124206000Y-117697250D01*
X124364750Y-117856000D01*
X124841000Y-117856000D01*
X124841000Y-118745000D01*
X115909984Y-118745000D01*
X115817122Y-118512846D01*
X115873000Y-118486836D01*
X115873000Y-117127000D01*
X116127000Y-117127000D01*
X116127000Y-118486836D01*
X116382944Y-118605975D01*
X116864818Y-118406385D01*
X117337188Y-117968379D01*
X117605983Y-117382946D01*
X117487367Y-117127000D01*
X116127000Y-117127000D01*
X115873000Y-117127000D01*
X115853000Y-117127000D01*
X115853000Y-116873000D01*
X115873000Y-116873000D01*
X115873000Y-115513164D01*
X116127000Y-115513164D01*
X116127000Y-116873000D01*
X117487367Y-116873000D01*
X117605983Y-116617054D01*
X117547992Y-116490750D01*
X122428000Y-116490750D01*
X122428000Y-117347309D01*
X122524673Y-117580698D01*
X122703301Y-117759327D01*
X122936690Y-117856000D01*
X123793250Y-117856000D01*
X123952000Y-117697250D01*
X123952000Y-116332000D01*
X122586750Y-116332000D01*
X122428000Y-116490750D01*
X117547992Y-116490750D01*
X117337188Y-116031621D01*
X116864818Y-115593615D01*
X116382944Y-115394025D01*
X116127000Y-115513164D01*
X115873000Y-115513164D01*
X115697000Y-115431238D01*
X115697000Y-113607509D01*
X116081440Y-113586664D01*
X116437831Y-113439042D01*
X116499669Y-113203275D01*
X115744000Y-112447605D01*
X115729858Y-112461748D01*
X115550253Y-112282143D01*
X115564395Y-112268000D01*
X115923605Y-112268000D01*
X116679275Y-113023669D01*
X116915042Y-112961831D01*
X117091419Y-112460878D01*
X117062664Y-111930560D01*
X116915042Y-111574169D01*
X116679275Y-111512331D01*
X115923605Y-112268000D01*
X115564395Y-112268000D01*
X114808725Y-111512331D01*
X114645857Y-111555049D01*
X114482820Y-111332725D01*
X114988331Y-111332725D01*
X115744000Y-112088395D01*
X116499669Y-111332725D01*
X116437831Y-111096958D01*
X115936878Y-110920581D01*
X115406560Y-110949336D01*
X115050169Y-111096958D01*
X114988331Y-111332725D01*
X114482820Y-111332725D01*
X112937998Y-109226150D01*
X114812684Y-107039016D01*
X115080590Y-107039016D01*
X115136271Y-107269611D01*
X115619078Y-107437622D01*
X116129428Y-107408083D01*
X116463729Y-107269611D01*
X116519410Y-107039016D01*
X115800000Y-106319605D01*
X115080590Y-107039016D01*
X114812684Y-107039016D01*
X115360520Y-106399875D01*
X115620395Y-106140000D01*
X115606253Y-106125858D01*
X115785858Y-105946253D01*
X115800000Y-105960395D01*
X115814142Y-105946252D01*
X115993748Y-106125858D01*
X115979605Y-106140000D01*
X116699016Y-106859410D01*
X116929611Y-106803729D01*
X117097622Y-106320922D01*
X117095587Y-106285750D01*
X118665000Y-106285750D01*
X118665000Y-106826310D01*
X118761673Y-107059699D01*
X118940302Y-107238327D01*
X119173691Y-107335000D01*
X119714250Y-107335000D01*
X119873000Y-107176250D01*
X119873000Y-106127000D01*
X118823750Y-106127000D01*
X118665000Y-106285750D01*
X117095587Y-106285750D01*
X117068083Y-105810572D01*
X116954766Y-105537000D01*
X118665000Y-105537000D01*
X118665000Y-105714250D01*
M02*
